<?xml version="1.0" encoding="UTF-8" standalone="no"?>
<!-- Created with Inkscape (http://www.inkscape.org/) -->

<svg
   width="255.21436mm"
   height="72.068924mm"
   viewBox="0 0 255.21436 72.068924"
   version="1.1"
   id="svg1"
   sodipodi:docname="mutate-logo-dark.svg"
   inkscape:version="1.4.2 (ebf0e940d0, 2025-05-08)"
   xmlns:inkscape="http://www.inkscape.org/namespaces/inkscape"
   xmlns:sodipodi="http://sodipodi.sourceforge.net/DTD/sodipodi-0.dtd"
   xmlns="http://www.w3.org/2000/svg"
   xmlns:svg="http://www.w3.org/2000/svg">
  <sodipodi:namedview
     id="namedview1"
     pagecolor="#ffffff"
     bordercolor="#666666"
     borderopacity="1.0"
     inkscape:showpageshadow="2"
     inkscape:pageopacity="0.0"
     inkscape:pagecheckerboard="0"
     inkscape:deskcolor="#d1d1d1"
     inkscape:document-units="mm"
     inkscape:zoom="2.4787742"
     inkscape:cx="482.29484"
     inkscape:cy="136.35772"
     inkscape:window-width="2560"
     inkscape:window-height="1360"
     inkscape:window-x="0"
     inkscape:window-y="80"
     inkscape:window-maximized="1"
     inkscape:current-layer="svg1" />
  <defs
     id="defs1">
    <rect
       x="124.99944"
       y="155.32108"
       width="372.52307"
       height="387.37448"
       id="rect2" />
    <rect
       x="97.771835"
       y="169.5537"
       width="448.6366"
       height="290.22147"
       id="rect1" />
  </defs>
  <g
     id="layer1"
     transform="translate(-0.30934525,-88.126203)"
     style="fill:#ffffff;fill-opacity:1">
    <text
       xml:space="preserve"
       transform="scale(0.26458333)"
       id="text1"
       style="font-size:40px;line-height:1.25;font-family:sans-serif;white-space:pre;shape-inside:url(#rect1);display:inline;fill:#ffffff;fill-opacity:1" />
    <path
       style="font-size:40px;line-height:1.25;font-family:'Rubik Glitch';-inkscape-font-specification:'Rubik Glitch';white-space:pre;stroke-width:1.98209;fill:#ffffff;fill-opacity:1"
       d="m 55.728646,141.32561 h 7.056249 v 0.39642 h -4.994873 v 0.55498 q 0,0.55499 -0.237851,1.03069 h -2.061376 q -0.317135,0.55499 -0.713553,0.79284 h -0.872121 q -0.396418,0.31713 -1.189255,0.31713 H 38.84122 q -0.713554,0 -1.109972,-0.31713 h 0.87212 q -0.396418,-0.23785 -0.713553,-0.79284 h 1.982093 q -0.237852,-0.39642 -0.237852,-0.87212 -0.237851,0.15857 -0.554985,0.31714 -0.237851,0.0793 -0.475703,0.23785 -0.158567,0.0793 -0.396418,0.15856 -0.158567,0.0793 -0.317135,0.15857 H 33.05351 q -0.554986,0.23785 -1.268539,0.4757 -0.63427,0.15857 -1.347823,0.31714 h 2.933497 q -0.475702,0.0793 -0.951404,0.15857 -0.475703,0.0793 -0.951405,0.15856 v 0.47571 H 20.130268 v 0.79283 h 2.219944 v 0.39642 h 10.227596 v 0.79284 h -1.902809 v 1.58567 h -5.708426 v 0.39642 h 1.189256 v 1.58567 h 2.219943 v 0.79284 h 0.872121 v 0.79284 h 0.87212 v 1.18925 h 4.994873 v 1.18926 h -1.50639 v 0.39642 h -8.007653 v 1.18925 h 13.795362 v 0.39642 H 28.058637 v 0.79284 h 6.976965 v 1.18925 h -7.769801 q 0,0.0793 -0.07928,0.15857 0,0.0793 0,0.23785 h 2.299227 q -0.237851,0.79284 -1.030688,1.18926 h -1.109972 q -0.317135,0.23785 -0.951404,0.23785 H 10.854076 q -0.554986,0 -0.951404,-0.23785 h 1.030688 q -0.792837,-0.39642 -1.030688,-1.18926 H 7.6034449 L 7.4448775,158.3716 h 7.8490855 q -0.07928,-0.0793 -0.07928,-0.31713 v -0.87212 H 8.2377145 v -0.79284 H 19.575282 v -0.39642 H 5.77992 v -1.18925 h 8.007653 v -0.39642 h 1.50639 v -1.18926 H 10.29909 v -1.18925 H 9.4269698 v -0.79284 H 8.5548492 v -0.79284 H 6.3349058 v -1.58567 H 5.1456505 v -0.39642 h 5.7084255 v -1.58567 h 1.902809 v -0.79284 H 2.5292886 v -0.39642 H 0.30934525 v -0.79283 H 11.646913 v -0.79284 H 8.7134166 v -0.79284 h 4.9155894 v -1.58567 H 7.4448775 v -0.39642 h 0.4757022 v -1.58567 h 1.8235249 v -1.18926 H 7.2070265 v -0.79284 h 4.1227515 v -0.39641 H 7.5241612 v -1.18926 h 7.4526668 v -1.18926 H 12.281183 V 134.5865 H 6.9691754 v -1.58568 h 1.5063901 v -1.98209 H 8.0791471 v -1.18926 H 6.810608 v -1.58567 h 1.9028086 v -0.79284 H 7.9998634 v -1.58567 h 1.4271064 v -0.39642 H 13.470438 V 123.8832 H 8.3962818 v -1.18926 h 0.3171348 v -0.39642 h 0.079284 v -1.58567 h 0.079284 v -0.39642 h 2.3785114 v -1.18925 h -0.63427 V 117.5405 H 8.7134166 v -0.79283 H 7.5241612 v -0.79284 h 0.8721206 v -1.18926 h 0.1585674 v -1.58567 h 0.079284 v -1.58567 h 0.079284 v -1.58568 H 8.3962818 v -0.39642 H 7.9205797 v -0.39642 h 1.2685391 v -1.58567 H 7.7620123 v -0.39642 h 0.9514043 v -1.58567 h 0.3171348 v -0.31714 q 0,-0.31713 0.079284,-0.4757 h 0.3171347 q 0,-0.0793 0.1585674,-0.39642 H 8.0791471 q 0.5549858,-1.26854 1.9820919,-1.26854 h 15.539604 q 1.347823,0 1.902809,1.26854 h 1.50639 l 0.158567,0.39642 h -0.396418 q 0.07928,0.15857 0.07928,0.4757 v 0.31714 H 28.53434 v 1.58567 h -0.951405 v 0.39642 h 1.427107 v 1.58567 h -1.268539 v 0.39642 h 0.475702 v 0.39642 h 0.317135 v 1.58568 h -0.07928 v 1.58567 h -0.07928 v 1.58567 h -0.158567 v 1.18926 h -0.872121 v 0.79284 h 1.189256 v 0.79283 h 1.902808 v 1.58568 h 0.63427 v 1.18925 h -2.378511 v 0.39642 h -0.07928 v 1.58567 h -0.07928 v 0.39642 H 28.21722 v 1.18926 h 5.074156 v 1.58567 h -4.043468 v 0.39642 h -1.427107 v 1.58567 h 0.792837 q 0,0.55499 0.07928,0.79284 h -1.902809 q 0.237851,1.03069 0.792837,1.58567 h 1.268539 q 1.109972,1.18926 3.012781,1.18926 h 0.396418 q 1.982092,0 3.01278,-1.18926 h 0.07928 q 0.475702,-0.55498 0.713553,-1.58567 h 1.030688 q 0.07928,-0.23785 0.07928,-0.79284 h 1.585674 q 0.07928,-0.15856 0.07928,-0.39641 0,-0.23786 0,-0.39642 v -0.79284 h -3.250632 v -0.39642 h 0.951404 v -1.58567 h -1.268539 v -1.18926 h 1.664958 v -0.39642 h -0.317135 v -1.58567 h -0.07928 v -0.39642 h 1.427107 v -1.18925 H 36.06629 v -1.58568 h 0.475702 v -0.79283 h -1.585673 v -0.79284 h 0.792837 v -1.18926 h 0.634269 v -1.58567 h 0.317135 v -1.58567 h -0.07928 v -1.58568 h -1.823525 v -0.39642 h 1.744241 v -0.39642 h 1.744242 v -1.58567 h -1.189256 v -0.39642 H 36.06629 v -1.58567 h 0.63427 v -0.31714 q 0,-0.31713 0.07928,-0.4757 h -0.872121 q 0,-0.15857 0,-0.23785 0.07928,-0.0793 0.07928,-0.15857 h 1.585673 q 0.554986,-1.26854 1.982093,-1.26854 h 15.063901 q 1.427107,0 1.982093,1.26854 h -1.585674 l 0.158567,0.39642 h 0.792837 q 0.07928,0.15857 0.07928,0.4757 v 0.31714 h -0.63427 v 1.58567 h 1.030688 v 0.39642 h 1.189256 v 1.58567 h -1.744242 v 0.39642 H 54.14296 v 0.39642 h 1.823525 v 1.58568 h 0.07928 v 1.58567 H 55.72863 v 1.58567 h -0.63427 v 1.18926 h -0.79282 v 0.79284 h 1.585673 v 0.79283 h -0.475702 v 1.58568 h 1.902809 v 1.18925 h -1.427107 v 0.39642 h 0.07928 v 1.58567 h 0.317135 v 0.39642 H 54.61867 v 1.18926 h 1.268539 v 1.58567 h -0.951404 v 0.39642 h 3.250631 v 1.58567 h -1.585673 v 0.79284 h -0.951405 v 1.58567 h -0.07928 v 3.17135 h -1.506391 v 1.58568 h 5.312008 v 0.39641 h 2.695645 v 1.18926 h -7.452667 v 1.18926 h 3.805617 v 0.39641 h -4.12275 v 0.79284 h 2.537078 v 1.18926 h -1.109972 z m -11.099717,0.39642 v -0.39642 H 37.57268 v -1.58567 h -0.713553 q -0.634269,0.9514 -1.427106,1.58567 h -0.475702 l -0.475702,0.39642 z M 116.61848,96.133905 h -14.74676 v 1.585674 h 5.62914 v 1.189256 h 6.10484 v 1.189255 h -0.15857 v 1.18926 h 2.29923 v 1.58567 h -8.64192 v 0.39642 h -1.66496 v 0.55498 q 0,0.55499 -0.23785,1.03069 h 5.62914 q -0.55498,1.10997 -1.82352,1.10997 H 95.846154 v 0.0793 h 0.792837 v 1.58567 h 0.158568 v 1.58567 H 96.40114 v 1.58568 h -1.030688 v 1.18925 h 3.964185 v 0.79284 h -3.329915 v 1.18926 h -1.744241 v 1.58567 h 3.01278 v 0.79284 h -0.554986 v 1.58567 h -0.554986 v 1.58567 h -0.951404 v 1.58568 h -0.872121 v 1.18925 h 2.933497 v 1.18926 h -1.189255 v 1.58567 h 0.475702 v 0.39642 h 0.554986 v 0.79284 h 3.964186 v 1.18925 h -2.695647 v 1.58568 h 1.189255 v 1.58567 h -3.329915 v 1.58568 h 1.347823 v 0.79283 h 0.554986 v 1.18926 h 1.268539 v 1.58567 h -0.475703 v 1.18926 h -2.061376 v 1.18925 h -0.237851 v 0.79284 h -0.07928 v 1.18925 h 0.87212 v 1.18926 h -0.713553 v 0.9514 q 0,0.39642 -0.07928,0.63427 h -0.792837 q -0.237851,0.79284 -0.87212,1.18926 h 0.158567 q -0.396418,0.31713 -1.109971,0.31713 H 78.165891 q -0.634269,0 -1.189255,-0.31713 h -0.158568 q -0.554985,-0.39642 -0.87212,-1.18926 h 0.713553 q -0.07928,-0.23785 -0.07928,-0.63427 v -0.9514 h 0.713554 v -1.18926 H 76.42165 v -1.18925 h 0.07928 v -0.79284 h 0.237851 v -1.18925 h 2.061376 v -1.18926 h 0.475702 v -1.58567 H 78.00732 v -1.18926 H 77.452334 V 132.208 h -1.347823 v -1.58568 h 3.329915 v -1.58567 h -1.189255 v -1.58568 h 2.695645 v -1.18925 h -3.964184 v -0.79284 H 76.42165 v -0.39642 h -0.475702 v -1.58567 h 1.189255 v -1.18926 h -2.933496 v -1.18925 h 0.87212 v -1.58568 h 0.951404 v -1.58567 h 0.554986 v -1.58567 h 0.554986 v -0.79284 h -3.01278 v -1.58567 h 1.744241 v -1.18926 h 3.329915 v -0.79284 h -3.964184 v -1.18925 h 1.030688 v -1.58568 h 0.396418 v -1.58567 h -0.158567 v -1.58567 h -0.792837 v -0.0793 H 62.547004 q -1.189256,0 -1.902809,-1.10997 h -5.629142 q -0.07928,-0.23785 -0.158567,-0.4757 -0.158568,-0.23785 -0.158568,-0.55499 v -0.55498 h 1.664958 v -0.39642 h 8.641922 v -1.58567 h -2.299227 v -1.18926 h 0.158568 V 98.908835 H 56.759294 V 97.719579 H 51.130152 V 96.133905 H 65.876919 V 94.94465 h -8.245504 v -1.585674 h 1.585674 v -1.585674 h 2.061376 v -0.396418 h 1.189255 v -0.317135 q 0,-0.792837 0.475702,-1.268539 h -1.744241 q 0.63427,-0.872121 1.744241,-0.872121 h 46.460248 q 1.10997,0 1.74424,0.872121 h 1.66495 q 0.39642,0.554986 0.39642,1.268539 v 0.317135 h -1.18925 v 0.396418 h -2.06138 v 1.585674 h -1.58567 v 1.585674 h 8.2455 z m 35.12272,44.002445 v 0.79284 h 6.89768 v 1.34782 q 0,0.15857 -0.0793,0.23786 h -3.72633 q -0.15857,1.10997 -1.03069,1.58567 h -0.71355 q -0.39642,0.31713 -1.10997,0.31713 H 138.1044 q -0.71355,0 -1.10997,-0.31713 h 0.63427 q -0.79284,-0.55499 -0.9514,-1.58567 h 3.80561 v -1.58568 h -3.17134 q -0.39642,0.39642 -0.87213,0.79284 -0.39641,0.39642 -0.87212,0.79284 h -0.87212 q -1.4271,1.03068 -2.85421,1.58567 h -2.53708 q -0.55498,0.23785 -1.26854,0.39642 -0.63427,0.23785 -1.34782,0.39642 h -0.63427 q -0.79284,0.15856 -1.66496,0.23785 -0.79283,0.0793 -1.66495,0.0793 -0.95141,0 -1.90281,-0.0793 -0.87212,-0.0793 -1.74424,-0.23785 h 0.63427 q -0.79284,-0.15857 -1.58568,-0.39642 -0.71355,-0.15857 -1.4271,-0.39642 h 2.45779 q -1.74424,-0.63427 -3.17135,-1.58567 h 0.87212 q -0.55498,-0.39642 -1.03069,-0.79284 -0.4757,-0.39642 -0.9514,-0.79284 h -3.96418 l -0.71356,-0.79284 q -0.0793,-0.15856 -0.23785,-0.39641 -0.15857,-0.23786 -0.31713,-0.39642 h 2.37851 q -0.15857,-0.31714 -0.39642,-0.55499 -0.15857,-0.31713 -0.31714,-0.63427 h -0.71355 q 0,-0.0793 -0.15857,-0.39642 h -0.71355 l -0.23785,-0.39641 h 0.0793 l -0.4757,-1.18926 h -0.39642 q -0.0793,-0.31713 -0.15857,-0.55499 -0.0793,-0.31713 -0.15856,-0.63427 h -3.01278 q -0.23785,-0.87212 -0.23785,-1.58567 h 2.61636 v -0.79284 q 0,-0.39641 0,-0.79283 0,-0.47571 0.0793,-0.79284 h 2.37851 q 0.0793,-0.39642 0.15857,-0.79284 0.0793,-0.4757 0.15857,-0.79283 h -2.21995 l 0.15857,-0.39642 h 0.0793 l 0.15857,-0.39642 h -0.0793 q 0.15857,-0.31714 0.31713,-0.55499 0.15857,-0.31713 0.23785,-0.63427 h -4.67773 l 0.4757,-0.79283 h -1.74424 q 0.23785,-0.23785 0.31713,-0.39642 h 2.85422 q 0.15856,-0.15857 0.31713,-0.39642 0.15857,-0.23785 0.31713,-0.39642 h 0.15857 q 0.79284,-0.9514 1.66496,-1.58567 h -6.50126 q 0.55498,-0.39642 1.18925,-0.79284 0.55499,-0.4757 1.18926,-0.79284 h 4.3606 l 0.71355,-0.39641 h 2.21995 q 0.15856,-0.15857 0.39642,-0.23786 0.23785,-0.0793 0.39641,-0.15856 h 0.95141 q 1.4271,-0.71356 3.09206,-1.18926 h 4.83631 q 1.10997,-0.39642 2.21994,-0.63427 1.18926,-0.31713 2.4578,-0.55498 h -1.9821 l 1.26854,-0.23785 8.40407,-1.34783 v -0.39642 h 4.04347 v -0.39641 h -7.61123 v -0.39642 h 4.51917 q 0,-0.39642 0,-0.63427 0,-0.31714 -0.0793,-0.55499 -0.0793,-0.71355 -0.55498,-1.18925 h -1.34782 q -0.0793,-0.0793 -0.39642,-0.23785 l -0.55499,0.23785 h -1.34782 q -0.31714,0.23785 -0.63427,0.55498 -0.31714,0.23785 -0.71355,0.63427 h 0.0793 q -0.87212,0.87212 -2.21994,0.87212 h -13.47823 q -1.18926,0 -1.58568,-0.87212 h -0.0793 q -0.23785,-0.39642 -0.15857,-0.87212 v -0.31713 h 1.26854 q 0.0793,-0.15857 0.0793,-0.39642 h -5.07416 q 0,-0.31714 0.15857,-0.79284 h 11.41685 q 0,-0.0793 0.15857,-0.39642 h -7.05625 q 0.23785,-0.79283 0.71355,-1.58567 h 1.34782 q 0.23785,-0.39642 0.55499,-0.79284 0.31713,-0.39642 0.63427,-0.79284 h -5.94628 l 0.71356,-0.79283 h 11.49613 q 0.31714,-0.31714 0.63427,-0.55499 0.39642,-0.31713 0.71355,-0.63427 h -7.2941 l 0.47571,-0.39642 h -2.21995 q 0.39642,-0.31713 0.87212,-0.55498 0.47571,-0.31714 0.95141,-0.63427 h 3.72633 q 1.66496,-0.95141 3.48848,-1.58568 h 0.55499 q 2.14066,-0.79283 4.75702,-1.18925 2.69565,-0.4757 5.86699,-0.4757 6.50127,0 11.02044,1.66495 h -0.63427 q 0.87212,0.31714 1.66496,0.71356 0.87212,0.39642 1.66495,0.87212 h -3.72633 l 1.66496,1.18925 h 2.21994 l 0.4757,0.39642 h 7.2941 l 1.18926,1.18926 h -11.49614 q 0.15857,0.15857 0.31714,0.39642 0.15856,0.23785 0.31713,0.39641 h 5.86699 q 0.31714,0.31714 0.55499,0.79284 0.31714,0.39642 0.4757,0.79284 h -1.26854 l 0.71356,1.58567 h 7.05625 q 0.15856,0.31714 0.15856,0.39642 h -11.41685 q 0.15857,0.15857 0.15857,0.39642 0.0793,0.23785 0.15857,0.39642 h 2.61636 q 0,0.0793 0,0.15857 0.0793,0.0793 0.0793,0.23785 h 1.34782 l 0.47571,2.37851 h -4.59846 q 0,0.0793 0,0.15856 0.0793,0.0793 0.0793,0.23786 h 7.61123 v 0.39641 h -3.96418 v 0.39642 q 0.0793,0.39642 0.0793,0.79284 0,0.39642 0,0.79284 h 2.06138 v 1.18925 h -4.91559 v 1.18926 h -0.87212 v 0.39642 h -2.14066 v 0.39641 h -4.36061 v 1.58568 h 6.50127 v 1.58567 h -0.15857 v 0.79284 H 146.35 v 0.39642 h 1.74424 v 0.79283 h 5.23272 v 1.18926 h -0.9514 v 0.79284 h 0.63427 v 1.58567 h -0.47571 v 2.37851 h -2.61636 v 1.58567 h 3.01278 v 1.18926 h 0.39642 v 1.58567 h 0.71355 v 0.39642 h 0.63427 v 1.18926 h -2.45779 v 0.79283 z m -22.99227,-26.63932 q -0.55499,0 -0.79284,0.0793 h 1.66496 q -0.23785,-0.0793 -0.87212,-0.0793 z m 0.55498,13.79537 -0.71355,0.15856 h 0.71355 z m -2.69564,2.14066 h 2.21994 q -0.87212,0.63427 -0.87212,1.58567 h -2.37851 v 0.23785 q 0,0.79284 0.55498,1.34782 0.39642,0.55499 1.58568,0.79284 h 1.90281 q 1.18925,-0.23785 2.06137,-0.79284 0.71356,-0.63427 1.34783,-1.58567 h 0.39641 q 0.15857,-0.39642 0.31714,-0.71355 0.15857,-0.39642 0.23785,-0.87212 h -0.63427 q 0,-0.15857 0,-0.23786 0.0793,-0.0793 0.0793,-0.15856 h 0.0793 v -0.39642 h 0.9514 q 0.0793,-0.31714 0.0793,-0.55499 0,-0.31713 0,-0.63427 h -1.34783 l -3.8849,0.87212 q -0.31713,0.0793 -0.63427,0.15857 -0.23785,0.0793 -0.4757,0.15857 -0.23785,0.0793 -0.4757,0.15857 -0.23785,0.0793 -0.39642,0.23785 h -0.0793 q -0.15857,0.0793 -0.31714,0.15856 -0.15857,0.0793 -0.31713,0.23786 z m 0.39642,3.96418 h -1.9821 q 0.31714,0.0793 0.95141,0.0793 0.23785,0 0.4757,0 0.31713,0 0.55499,-0.0793 z m 69.84895,1.98209 h -1.90281 v 0.79284 h 2.85421 v 0.79284 h 2.61636 v 1.18925 h -1.82352 v 1.18926 h 5.31201 v 1.18925 h -8.64193 v 1.58568 h 0.63427 v 0.15856 q 0,0.15857 -0.0793,0.23786 -0.15857,0.79283 -0.55499,1.18925 h -0.63427 q -0.31713,0.31714 -0.4757,0.39642 h 2.69565 q -0.39642,0.31713 -1.10997,0.31713 h -8.95906 q -1.34782,0 -2.69565,-0.0793 -1.26854,-0.0793 -2.45779,-0.23785 h -2.69565 q -0.55498,-0.0793 -1.10997,-0.15857 -0.55498,-0.15857 -1.18925,-0.23785 h 0.63427 q -1.03069,-0.23785 -1.9821,-0.55499 -0.87212,-0.31713 -1.74424,-0.63426 h 0.0793 q -0.23786,-0.15857 -0.47571,-0.23786 -0.23785,-0.0793 -0.39641,-0.15856 h -0.63427 q -0.63427,-0.39642 -1.26854,-0.71356 -0.63427,-0.39641 -1.26854,-0.87212 h 8.7212 q -0.31713,-0.31713 -0.71355,-0.55498 -0.31713,-0.31714 -0.63427,-0.63427 h -5.31201 l -1.03068,-1.18926 h 1.9028 q -0.23785,-0.31713 -0.4757,-0.55498 -0.15857,-0.31714 -0.31713,-0.63427 h -2.61636 l -0.47571,-0.79284 h -2.85421 q -0.0793,-0.15857 -0.15857,-0.39642 -0.0793,-0.23785 -0.23785,-0.39642 h 1.98209 l -0.4757,-1.18925 h 1.58568 l -0.23786,-0.79284 q -0.15856,-0.4757 -0.15856,-0.79284 h 6.26341 q -0.0793,-0.31713 -0.15857,-0.55498 0,-0.31714 0,-0.63427 h -9.03834 q 0,-0.15857 -0.0793,-0.23785 0,-0.0793 0,-0.15857 H 164.823 q 0,-0.31713 -0.0793,-0.55499 0,-0.31713 0,-0.63427 h -0.23785 q 0,-0.31713 -0.0793,-0.55498 0,-0.31714 0,-0.63427 h 1.10997 v -0.39642 h -0.71355 v -0.79284 h -0.63427 v -1.58567 h 0.9514 v -1.58567 h -0.9514 v -1.18926 h 0.71355 v -0.79284 h 0.0793 v -1.18925 h 0.39642 v -2.77493 h 0.15857 v -1.18926 h 0.39642 v -0.0793 h -6.26341 q -1.18926,0 -1.90281,-1.10997 h 1.18925 q -0.23785,-0.4757 -0.23785,-1.03069 v -0.55499 h -2.53708 v -1.18925 h 0.55499 v -1.58567 h -0.39642 v -0.79284 h 0.15857 v -0.79284 h 1.18925 v -0.39642 h -1.98209 v -1.18925 h 2.37851 v -1.18926 h -0.4757 v -0.79283 h -0.55499 v -1.18926 h -0.4757 v -0.39642 h -0.23785 q 0.23785,-1.18925 1.50639,-1.58567 h 0.4757 q 0.23785,-0.0793 0.63427,-0.0793 h 6.26341 v -0.31713 h 0.31714 v -1.18926 h -0.63427 v -0.79283 h -0.0793 v -1.189258 h -0.31714 v -0.396419 h -1.90281 v -0.792837 h -1.82352 v -0.396418 h 0.63427 v -0.396419 h 1.82352 v -1.585674 h 0.71356 v -0.792837 h -2.53708 v -0.792836 h 3.8849 v -1.189256 h -0.39642 v -0.396418 h -0.87212 v -0.792837 h 0.79284 v -0.396419 h -0.79284 v -1.189255 h 0.71355 v -0.317135 q 0,-0.396418 0.15857,-0.87212 h 1.03069 q 0.55498,-1.268539 1.98209,-1.268539 h 13.87465 q 1.26854,0 1.98209,1.268539 h -1.03069 q 0.15857,0.475702 0.15857,0.87212 v 0.317135 h -0.71356 v 1.189255 h 0.79284 v 0.396419 h -0.79284 v 0.792837 h 0.87213 v 0.396418 h 0.39641 v 1.189256 h -3.8849 v 0.792836 h 2.53708 v 0.792837 h -0.71355 v 1.585674 h -1.82353 v 0.396419 h -0.63427 v 0.396418 h 1.82353 v 0.792837 h 1.90281 v 0.396419 h 0.31713 v 1.189258 h 0.0793 v 0.79283 h 0.63426 v 1.18926 h -0.31713 v 0.31713 h 9.98975 q 0.39641,0 0.55498,0.0793 h -0.4757 q 1.10997,0.39642 1.50639,1.58567 h 0.23785 q 0,0.0793 0,0.15857 0.0793,0.0793 0.0793,0.23785 h 0.47571 v 1.18926 h 0.55498 v 0.79283 h 0.4757 v 1.18926 h -2.37851 v 1.18925 h 1.9821 v 0.39642 h -1.18926 v 0.79284 h -0.15857 v 0.79284 h 0.39642 v 1.58567 h -0.55498 v 1.18925 h 2.53707 v 0.55499 q 0,0.31714 -0.0793,0.55499 -0.0793,0.23785 -0.23785,0.4757 h -1.10997 q -0.71356,1.10997 -1.90281,1.10997 h -9.98975 v 0.0793 h -0.39642 v 1.18926 h -0.15856 v 2.77493 h -0.39642 v 1.18925 h -0.0793 v 0.79284 h -0.71356 v 1.18926 h 0.95141 v 1.58567 h -0.95141 q 0,0.39642 0,0.79284 0.0793,0.39642 0.15857,0.79283 h 0.71355 q 0.15857,0.47571 0.31714,0.79284 h 0.63427 l 0.23785,0.39642 h -1.10997 q 0.87212,1.10997 2.69564,1.10997 h 7.21482 q 0.39642,0 0.55498,0.0793 h 0.23785 q 0.95141,0.23786 1.34783,1.18926 h 0.23785 q 0,0.0793 0,0.15857 0.0793,0.0793 0.0793,0.23785 h 9.03834 q 0,0.0793 0,0.23785 0.0793,0.0793 0.0793,0.23785 v 0.71355 h -6.3427 v 1.58568 h -1.58567 z m 44.87453,-12.68539 v 0.79284 h 10.06903 v 0.79284 h -6.10485 v 0.79283 h -2.85421 v 0.79284 h 2.45779 v 0.4757 q 0,0.4757 -0.0793,0.71356 h 1.10997 q -0.55498,1.4271 -2.06137,1.4271 h -23.62654 v 0.15857 h 3.17134 v 0.23785 q 0,0.31713 0,0.71355 0,0.31714 0.0793,0.63427 h -4.28132 q 0,0.23785 0,0.47571 0.0793,0.15856 0.0793,0.31713 h -0.4757 q 0,0.31713 0.15857,0.79284 h 0.31713 q 0.39642,1.10997 1.26854,1.58567 h -2.14066 q 0.55499,0.31714 1.50639,0.31714 0.63427,0 1.03069,-0.31714 h 3.72633 q 0.31714,-0.15857 0.55499,-0.4757 0.31713,-0.31714 0.71355,-0.63427 l 0.4757,-0.4757 h -1.50639 q 0.71356,-0.63427 2.14066,-0.63427 h 14.98462 q 0.95141,0 1.42711,0.63427 h 1.4271 q 0.39642,0.55498 0.39642,1.10997 -0.0793,0.15857 -0.0793,0.4757 h -3.72634 q -0.15856,0.79284 -0.4757,1.58567 h -3.8849 q -0.23785,0.39642 -0.39642,0.79284 h 9.83118 q -0.15857,0.39642 -0.4757,0.79284 -0.23785,0.39642 -0.55499,0.79284 h -2.37851 q -0.31713,0.4757 -0.63427,0.79283 h 0.55499 q -0.0793,0.0793 -0.15857,0.15857 -0.0793,0.0793 -0.15857,0.23785 h -4.43988 l -0.39642,0.39642 h 1.34782 q -0.0793,0.0793 -0.23785,0.15857 -0.0793,0.0793 -0.15857,0.23785 h 2.4578 q -0.55499,0.55498 -1.42711,1.18925 h -1.18925 q -0.0793,0.0793 -0.23786,0.15857 -0.15856,0.0793 -0.31713,0.23785 h -0.87212 q -1.26854,0.87212 -2.77493,1.58568 h -1.03069 q -0.9514,0.4757 -2.06137,0.87212 -1.03069,0.39641 -2.21995,0.71355 h -1.26854 q -0.87212,0.23785 -1.82352,0.39642 -0.95141,0.23785 -2.06138,0.39642 h 3.32992 q -1.10997,0.15856 -2.29923,0.23785 -1.18925,0.0793 -2.53708,0.0793 -1.26854,0 -2.53708,-0.0793 -1.26853,-0.0793 -2.45779,-0.23785 h -3.32992 q -1.03068,-0.15857 -1.98209,-0.39642 -0.9514,-0.15857 -1.90281,-0.39642 h 1.26854 q -2.14066,-0.55499 -4.04347,-1.58567 h 1.03069 q -1.4271,-0.79284 -2.45779,-1.58568 h 0.87212 q -0.15857,-0.15857 -0.31714,-0.23785 -0.0793,-0.0793 -0.23785,-0.15857 h 1.18926 q -0.31714,-0.31713 -0.63427,-0.55498 -0.31714,-0.31714 -0.63427,-0.63427 h -2.53708 l -0.39642,-0.39642 h -1.34782 q -0.0793,-0.15857 -0.15857,-0.23785 -0.0793,-0.0793 -0.15856,-0.15857 h 4.3606 q -0.0793,-0.15857 -0.31714,-0.39642 h -0.55498 q -0.15857,-0.15857 -0.31714,-0.39642 -0.15856,-0.23785 -0.31713,-0.39641 h 2.37851 q -0.23785,-0.39642 -0.4757,-0.79284 -0.23785,-0.39642 -0.47571,-0.79284 h -9.91046 q -0.23785,-0.39642 -0.39642,-0.79284 h 3.88491 l -0.71356,-1.58567 h 2.14066 q -0.15857,-0.39642 -0.31713,-0.79284 -0.0793,-0.39641 -0.23785,-0.79283 h -0.23785 l -0.23786,-0.79284 h 0.55499 l -0.23785,-0.79284 h 4.28132 q -0.0793,-0.39642 -0.15857,-0.79283 -0.0793,-0.39642 -0.15857,-0.79284 h -3.17134 l -0.15857,-1.58567 h -1.10997 q 0,-0.31714 -0.0793,-0.55499 0,-0.31714 0,-0.63427 h -2.45779 v -0.79284 h 2.77493 v -0.79283 h 6.10484 v -0.79284 h -10.06903 v -0.15857 q 0,-0.39642 0.0793,-0.63427 h 13.71608 q 0,-0.31713 0,-0.55498 0.0793,-0.31714 0.0793,-0.63427 H 197.805 q 0,-0.15857 0,-0.23785 0.0793,-0.0793 0.0793,-0.15857 h 5.23272 q 0,-0.23785 0.0793,-0.39642 h 5.867 v -0.39642 h -11.179 q 0.0793,-0.39642 0.15856,-0.79284 0.0793,-0.39641 0.15857,-0.79283 h 3.01278 q 0,-0.31714 0.15857,-0.79284 h -2.61636 q 0,-0.15857 0,-0.23785 0.0793,-0.0793 0.0793,-0.15857 h 1.90281 q 0,-0.15857 0,-0.23785 0.0793,-0.0793 0.0793,-0.15857 h -1.98209 l 0.15857,-0.39641 h 1.90281 l 0.23785,-0.79284 h 1.50639 l 0.4757,-1.18926 h -1.42711 q 0.15857,-0.39642 0.31714,-0.79283 0.15857,-0.47571 0.39642,-0.79284 h -0.23785 l 0.15856,-0.39642 h -1.98209 q 0.15857,-0.31713 0.15857,-0.39642 h -1.82353 l 0.4757,-0.79283 h 3.88491 q 0.0793,-0.15857 0.31713,-0.39642 h 1.42711 q 0.31713,-0.39642 0.55498,-0.79284 0.31714,-0.4757 0.63427,-0.79284 h -1.4271 q 0.23785,-0.31713 0.4757,-0.55498 0.31713,-0.31714 0.63427,-0.63427 h 3.09206 l 0.79284,-0.79284 h -4.67774 q 1.03069,-0.87212 2.06138,-1.58567 h 4.3606 l 0.63427,-0.39642 h -1.42711 q 0.63427,-0.39642 1.50639,-0.79284 h 3.09207 q 2.14066,-1.03069 4.43988,-1.58567 h -4.43988 q 1.74424,-0.39642 3.64705,-0.63427 1.90281,-0.23785 3.96418,-0.23785 2.06138,0 3.8849,0.23785 1.82353,0.23785 3.48848,0.63427 h 4.36061 q 1.18925,0.31713 2.21994,0.71355 1.10997,0.39642 2.14066,0.87212 h -3.09206 q 0.39642,0.15857 0.71355,0.39642 0.39642,0.15857 0.71355,0.39642 h 1.42711 q 0.15857,0.0793 0.31713,0.15857 0.15857,0.0793 0.31714,0.23785 h -4.3606 q 1.03068,0.71355 2.06137,1.58567 h 4.75702 l 0.79284,0.79284 h -3.09206 q 0.31713,0.31713 0.55498,0.63427 0.31714,0.23785 0.55499,0.55498 h 1.4271 q 0.31714,0.31714 0.55499,0.79284 0.31714,0.39642 0.63427,0.79284 h -1.50639 q 0.0793,0.15856 0.31713,0.39642 h -3.96418 l 0.4757,0.79283 h 1.82353 l 0.23785,0.39642 h 2.06137 q 0,0.0793 0.15857,0.39642 h 0.23785 l 0.71356,1.58567 0.4757,1.18926 h 0.0793 l 0.23785,0.79284 h -0.9514 l 0.15857,0.39641 h 0.71355 l 0.15857,0.39642 h 1.26854 q 0,0.0793 0,0.15857 0.0793,0.0793 0.0793,0.23785 h -0.63427 l 0.23785,0.79284 h -3.01278 l 0.23785,1.58567 h 11.179 v 0.39642 h -5.86699 q 0,0.0793 0,0.15857 0.0793,0.0793 0.0793,0.23785 h -5.312 q 0.0793,0.15857 0.0793,0.39642 h 12.60611 q 0,0.31713 0,0.63427 0,0.23785 0.0793,0.55498 z m -24.10224,-5.15344 v 0.39642 h 2.53707 v 0.63427 h 6.3427 v -0.63427 h 0.55498 v -0.39642 h -1.26853 v -0.39642 h -0.79284 q 0,-0.23785 -0.0793,-0.39641 h 0.95141 q 0,-0.31714 -0.15857,-0.79284 h -0.0793 q -0.0793,-0.71355 -0.4757,-1.18926 -0.79284,-1.26854 -2.4578,-1.26854 -1.58567,0 -2.37851,1.26854 h 1.42711 q -0.31714,0.47571 -0.4757,1.18926 h -1.58568 q 0,0.15857 -0.0793,0.39642 0,0.15856 -0.0793,0.39642 h -1.9028 q 0,0.23785 -0.0793,0.39641 h 1.98209 v 0.39642 z"
       id="text2"
       aria-label="µTate" />
  </g>
</svg>
